{
 "accessors": [
  {
   "componentType": 5126,
   "type": "VEC3",
   "count": 96,
   "max": [
    6,
    3.200000047683716,
    1.5
   ],
   "min": [
    -6,
    3.0999999046325684,
    -1.5
   ],
   "bufferView": 0
  },
  {
   "componentType": 5126,
   "type": "VEC3",
   "count": 96,
   "bufferView": 1
  },
  {
   "componentType": 5126,
   "type": "VEC2",
   "count": 96,
   "bufferView": 2
  },
  {
   "componentType": 5121,
   "type": "SCALAR",
   "count": 132,
   "bufferView": 3
  },
  {
   "componentType": 5126,
   "type": "VEC3",
   "count": 96,
   "max": [
    -5.700000762939453,
    6,
    1.399999976158142
   ],
   "min": [
    -5.900000095367432,
    0,
    1.2000000476837158
   ],
   "bufferView": 4
  },
  {
   "componentType": 5126,
   "type": "VEC3",
   "count": 96,
   "bufferView": 5
  },
  {
   "componentType": 5126,
   "type": "VEC2",
   "count": 96,
   "bufferView": 6
  },
  {
   "componentType": 5121,
   "type": "SCALAR",
   "count": 132,
   "bufferView": 7
  },
  {
   "componentType": 5126,
   "type": "VEC3",
   "count": 96,
   "max": [
    5.900000095367432,
    5.971699237823486,
    -1.2000000476837158
   ],
   "min": [
    5.700000762939453,
    -0.028301000595092773,
    -1.399999976158142
   ],
   "bufferView": 8
  },
  {
   "componentType": 5126,
   "type": "VEC3",
   "count": 96,
   "bufferView": 9
  },
  {
   "componentType": 5126,
   "type": "VEC2",
   "count": 96,
   "bufferView": 10
  },
  {
   "componentType": 5121,
   "type": "SCALAR",
   "count": 132,
   "bufferView": 11
  },
  {
   "componentType": 5126,
   "type": "VEC3",
   "count": 96,
   "max": [
    0.10000000149011612,
    6,
    -1.2000000476837158
   ],
   "min": [
    -0.10000000149011612,
    0,
    -1.399999976158142
   ],
   "bufferView": 12
  },
  {
   "componentType": 5126,
   "type": "VEC3",
   "count": 96,
   "bufferView": 13
  },
  {
   "componentType": 5126,
   "type": "VEC2",
   "count": 96,
   "bufferView": 14
  },
  {
   "componentType": 5121,
   "type": "SCALAR",
   "count": 132,
   "bufferView": 15
  },
  {
   "componentType": 5126,
   "type": "VEC3",
   "count": 96,
   "max": [
    0.10000000149011612,
    6,
    1.399999976158142
   ],
   "min": [
    -0.10000000149011612,
    0,
    1.2000000476837158
   ],
   "bufferView": 16
  },
  {
   "componentType": 5126,
   "type": "VEC3",
   "count": 96,
   "bufferView": 17
  },
  {
   "componentType": 5126,
   "type": "VEC2",
   "count": 96,
   "bufferView": 18
  },
  {
   "componentType": 5121,
   "type": "SCALAR",
   "count": 132,
   "bufferView": 19
  },
  {
   "componentType": 5126,
   "type": "VEC3",
   "count": 96,
   "max": [
    5.900000095367432,
    5.971699237823486,
    1.399999976158142
   ],
   "min": [
    5.700000762939453,
    -0.028301000595092773,
    1.2000000476837158
   ],
   "bufferView": 20
  },
  {
   "componentType": 5126,
   "type": "VEC3",
   "count": 96,
   "bufferView": 21
  },
  {
   "componentType": 5126,
   "type": "VEC2",
   "count": 96,
   "bufferView": 22
  },
  {
   "componentType": 5121,
   "type": "SCALAR",
   "count": 132,
   "bufferView": 23
  },
  {
   "componentType": 5126,
   "type": "VEC3",
   "count": 96,
   "max": [
    -5.700000762939453,
    6,
    -1.2000000476837158
   ],
   "min": [
    -5.900000095367432,
    0,
    -1.399999976158142
   ],
   "bufferView": 24
  },
  {
   "componentType": 5126,
   "type": "VEC3",
   "count": 96,
   "bufferView": 25
  },
  {
   "componentType": 5126,
   "type": "VEC2",
   "count": 96,
   "bufferView": 26
  },
  {
   "componentType": 5121,
   "type": "SCALAR",
   "count": 132,
   "bufferView": 27
  },
  {
   "componentType": 5126,
   "type": "VEC3",
   "count": 96,
   "max": [
    6,
    0.20000000298023224,
    1.5
   ],
   "min": [
    -6,
    0.10000000149011612,
    -1.5
   ],
   "bufferView": 28
  },
  {
   "componentType": 5126,
   "type": "VEC3",
   "count": 96,
   "bufferView": 29
  },
  {
   "componentType": 5126,
   "type": "VEC2",
   "count": 96,
   "bufferView": 30
  },
  {
   "componentType": 5121,
   "type": "SCALAR",
   "count": 132,
   "bufferView": 31
  }
 ],
 "asset": {
  "version": "2.0",
  "generator": "clara.io"
 },
 "bufferViews": [
  {
   "buffer": 0,
   "byteOffset": 0,
   "byteLength": 1152,
   "target": 34962,
   "byteStride": 12
  },
  {
   "buffer": 0,
   "byteOffset": 1152,
   "byteLength": 1152,
   "target": 34962,
   "byteStride": 12
  },
  {
   "buffer": 0,
   "byteOffset": 2304,
   "byteLength": 768,
   "target": 34962,
   "byteStride": 8
  },
  {
   "buffer": 0,
   "byteOffset": 3072,
   "byteLength": 132,
   "target": 34963
  },
  {
   "buffer": 0,
   "byteOffset": 3204,
   "byteLength": 1152,
   "target": 34962,
   "byteStride": 12
  },
  {
   "buffer": 0,
   "byteOffset": 4356,
   "byteLength": 1152,
   "target": 34962,
   "byteStride": 12
  },
  {
   "buffer": 0,
   "byteOffset": 5508,
   "byteLength": 768,
   "target": 34962,
   "byteStride": 8
  },
  {
   "buffer": 0,
   "byteOffset": 6276,
   "byteLength": 132,
   "target": 34963
  },
  {
   "buffer": 0,
   "byteOffset": 6408,
   "byteLength": 1152,
   "target": 34962,
   "byteStride": 12
  },
  {
   "buffer": 0,
   "byteOffset": 7560,
   "byteLength": 1152,
   "target": 34962,
   "byteStride": 12
  },
  {
   "buffer": 0,
   "byteOffset": 8712,
   "byteLength": 768,
   "target": 34962,
   "byteStride": 8
  },
  {
   "buffer": 0,
   "byteOffset": 9480,
   "byteLength": 132,
   "target": 34963
  },
  {
   "buffer": 0,
   "byteOffset": 9612,
   "byteLength": 1152,
   "target": 34962,
   "byteStride": 12
  },
  {
   "buffer": 0,
   "byteOffset": 10764,
   "byteLength": 1152,
   "target": 34962,
   "byteStride": 12
  },
  {
   "buffer": 0,
   "byteOffset": 11916,
   "byteLength": 768,
   "target": 34962,
   "byteStride": 8
  },
  {
   "buffer": 0,
   "byteOffset": 12684,
   "byteLength": 132,
   "target": 34963
  },
  {
   "buffer": 0,
   "byteOffset": 12816,
   "byteLength": 1152,
   "target": 34962,
   "byteStride": 12
  },
  {
   "buffer": 0,
   "byteOffset": 13968,
   "byteLength": 1152,
   "target": 34962,
   "byteStride": 12
  },
  {
   "buffer": 0,
   "byteOffset": 15120,
   "byteLength": 768,
   "target": 34962,
   "byteStride": 8
  },
  {
   "buffer": 0,
   "byteOffset": 15888,
   "byteLength": 132,
   "target": 34963
  },
  {
   "buffer": 0,
   "byteOffset": 16020,
   "byteLength": 1152,
   "target": 34962,
   "byteStride": 12
  },
  {
   "buffer": 0,
   "byteOffset": 17172,
   "byteLength": 1152,
   "target": 34962,
   "byteStride": 12
  },
  {
   "buffer": 0,
   "byteOffset": 18324,
   "byteLength": 768,
   "target": 34962,
   "byteStride": 8
  },
  {
   "buffer": 0,
   "byteOffset": 19092,
   "byteLength": 132,
   "target": 34963
  },
  {
   "buffer": 0,
   "byteOffset": 19224,
   "byteLength": 1152,
   "target": 34962,
   "byteStride": 12
  },
  {
   "buffer": 0,
   "byteOffset": 20376,
   "byteLength": 1152,
   "target": 34962,
   "byteStride": 12
  },
  {
   "buffer": 0,
   "byteOffset": 21528,
   "byteLength": 768,
   "target": 34962,
   "byteStride": 8
  },
  {
   "buffer": 0,
   "byteOffset": 22296,
   "byteLength": 132,
   "target": 34963
  },
  {
   "buffer": 0,
   "byteOffset": 22428,
   "byteLength": 1152,
   "target": 34962,
   "byteStride": 12
  },
  {
   "buffer": 0,
   "byteOffset": 23580,
   "byteLength": 1152,
   "target": 34962,
   "byteStride": 12
  },
  {
   "buffer": 0,
   "byteOffset": 24732,
   "byteLength": 768,
   "target": 34962,
   "byteStride": 8
  },
  {
   "buffer": 0,
   "byteOffset": 25500,
   "byteLength": 132,
   "target": 34963
  }
 ],
 "buffers": [
  {
   "byteLength": 25632,
   "uri": "data:application/octet-stream;base64,"
  }
 ],
 "materials": [
  {
   "name": "Default-pasted__pCube1_group4",
   "pbrMetallicRoughness": {
    "baseColorFactor": [
     0.6274509803921569,
     0.6274509803921569,
     0.6274509803921569,
     1
    ]
   }
  },
  {
   "name": "Default-group6_pasted__pasted__pasted__pCube3_pasted__pasted__group3_pasted__group5",
   "pbrMetallicRoughness": {
    "baseColorFactor": [
     0.7098039215686275,
     0.047058823529411764,
     0.047058823529411764,
     1
    ]
   }
  },
  {
   "name": "Default-pasted__pasted__pCube3_pasted__group3_group7",
   "pbrMetallicRoughness": {
    "baseColorFactor": [
     0.7098039215686275,
     0.047058823529411764,
     0.047058823529411764,
     1
    ]
   }
  },
  {
   "name": "Default-pasted__pCube3_group3",
   "pbrMetallicRoughness": {
    "baseColorFactor": [
     0.7098039215686275,
     0.047058823529411764,
     0.047058823529411764,
     1
    ]
   }
  },
  {
   "name": "Default-pasted__pasted__pCube3_pasted__group3_group5",
   "pbrMetallicRoughness": {
    "baseColorFactor": [
     0.7098039215686275,
     0.047058823529411764,
     0.047058823529411764,
     1
    ]
   }
  },
  {
   "name": "Default-group7_pasted__pasted__pasted__pCube3_pasted__pasted__group3_pasted__group5",
   "pbrMetallicRoughness": {
    "baseColorFactor": [
     0.7098039215686275,
     0.047058823529411764,
     0.047058823529411764,
     1
    ]
   }
  },
  {
   "name": "Default-pasted__pasted__pCube3_pasted__group3_group6",
   "pbrMetallicRoughness": {
    "baseColorFactor": [
     0.7098039215686275,
     0.047058823529411764,
     0.047058823529411764,
     1
    ]
   }
  },
  {
   "name": "Default-pCube1",
   "pbrMetallicRoughness": {
    "baseColorFactor": [
     0.6274509803921569,
     0.6274509803921569,
     0.6274509803921569,
     1
    ]
   }
  }
 ],
 "meshes": [
  {
   "primitives": [
    {
     "indices": 3,
     "material": 0,
     "mode": 4,
     "attributes": {
      "POSITION": 0,
      "NORMAL": 1,
      "TEXCOORD_0": 2
     }
    }
   ]
  },
  {
   "primitives": [
    {
     "indices": 7,
     "material": 1,
     "mode": 4,
     "attributes": {
      "POSITION": 4,
      "NORMAL": 5,
      "TEXCOORD_0": 6
     }
    }
   ]
  },
  {
   "primitives": [
    {
     "indices": 11,
     "material": 2,
     "mode": 4,
     "attributes": {
      "POSITION": 8,
      "NORMAL": 9,
      "TEXCOORD_0": 10
     }
    }
   ]
  },
  {
   "primitives": [
    {
     "indices": 15,
     "material": 3,
     "mode": 4,
     "attributes": {
      "POSITION": 12,
      "NORMAL": 13,
      "TEXCOORD_0": 14
     }
    }
   ]
  },
  {
   "primitives": [
    {
     "indices": 19,
     "material": 4,
     "mode": 4,
     "attributes": {
      "POSITION": 16,
      "NORMAL": 17,
      "TEXCOORD_0": 18
     }
    }
   ]
  },
  {
   "primitives": [
    {
     "indices": 23,
     "material": 5,
     "mode": 4,
     "attributes": {
      "POSITION": 20,
      "NORMAL": 21,
      "TEXCOORD_0": 22
     }
    }
   ]
  },
  {
   "primitives": [
    {
     "indices": 27,
     "material": 6,
     "mode": 4,
     "attributes": {
      "POSITION": 24,
      "NORMAL": 25,
      "TEXCOORD_0": 26
     }
    }
   ]
  },
  {
   "primitives": [
    {
     "indices": 31,
     "material": 7,
     "mode": 4,
     "attributes": {
      "POSITION": 28,
      "NORMAL": 29,
      "TEXCOORD_0": 30
     }
    }
   ]
  }
 ],
 "nodes": [
  {
   "name": "shelf_root",
   "scale": [
    0.009999999776482582,
    0.009999999776482582,
    0.009999999776482582
   ],
   "children": [
    1,
    2,
    3,
    4,
    5,
    6,
    7,
    8
   ]
  },
  {
   "name": "pasted__pCube1_group4",
   "mesh": 0
  },
  {
   "name": "group6_pasted__pasted__pasted__pCube3_pasted__pasted__group3_pasted__group5",
   "mesh": 1
  },
  {
   "name": "pasted__pasted__pCube3_pasted__group3_group7",
   "mesh": 2
  },
  {
   "name": "pasted__pCube3_group3",
   "mesh": 3
  },
  {
   "name": "pasted__pasted__pCube3_pasted__group3_group5",
   "mesh": 4
  },
  {
   "name": "group7_pasted__pasted__pasted__pCube3_pasted__pasted__group3_pasted__group5",
   "mesh": 5
  },
  {
   "name": "pasted__pasted__pCube3_pasted__group3_group6",
   "mesh": 6
  },
  {
   "name": "pCube1",
   "mesh": 7
  }
 ],
 "scene": 0,
 "scenes": [
  {
   "nodes": [
    0
   ]
  }
 ]
}